<svg id="Grupo_902" data-name="Grupo 902" xmlns="http://www.w3.org/2000/svg" xmlns:xlink="http://www.w3.org/1999/xlink" width="219.801" height="46.85" viewBox="0 0 219.801 46.85">
  <defs>
    <clipPath id="clip-path">
      <rect id="Retângulo_311" data-name="Retângulo 311" width="219.801" height="46.85" transform="translate(0 0)" fill="none"/>
    </clipPath>
  </defs>
  <g id="Grupo_901" data-name="Grupo 901" clip-path="url(#clip-path)">
    <path id="Caminho_504" data-name="Caminho 504" d="M1.745,46.85q1.743,0,1.743-1.556T1.745,43.736Q0,43.736,0,45.294T1.745,46.85m9.906-3.612q-3.24.063-3.241,1.556L8.6,45.6q.561,1,2.866,1,3.365,0,3.364-1.745,0-1.618-3.177-1.619m59-28.722a18.771,18.771,0,0,0-13.52,5.732,20.615,20.615,0,0,0-5.918,10.778,22.681,22.681,0,0,0-3.551-.249q-10.344,0-15.39,3.863a10.561,10.561,0,0,0-4.111,7.538,29.452,29.452,0,0,0-4.174.436q-4.609.936-4.61,3.428a1.708,1.708,0,0,0,.063.373q147.716.437,162.668-.748,3.552-.25,14.766-.5a8.825,8.825,0,0,0-3.052-6.667,10.484,10.484,0,0,0-6.792-2.366,5.978,5.978,0,0,0-3.862,1.743,5.855,5.855,0,0,1-3.676,1.621,56.748,56.748,0,0,0-3.3-8.038q-2.8-5.605-7.165-5.607a10.2,10.2,0,0,0-5.046,1.122,13.933,13.933,0,0,0-4.174,4.237,21.681,21.681,0,0,0-4.922-8.163q-5.046-5.607-10.966-5.607a9.176,9.176,0,0,0-5.047,1.184,11.267,11.267,0,0,0-2.3,2.118,23.9,23.9,0,0,0-3.053-11.214Q128.466,0,116.691,0q-9.845,0-16.261,4.61a15.557,15.557,0,0,0-6.79,13.27q0,.5.248,2.368-1.122-.063-2.491-.062-6.355,0-8.973,2.555a11.066,11.066,0,0,0-2.866-5.047q-3.237-3.177-8.908-3.178m147.343,29.22q1.808,0,1.807-1.745,0-1.682-1.87-1.994Q216,39.748,216,41.743l.25.871a1.763,1.763,0,0,0,1.744,1.122m-7.476-.935q0-2.616-3.987-3.114-3.988-.438-3.988,2.927l.125,1.372q.871,1.306,4.3,1.308,3.552,0,3.551-2.493" fill="#ffe6c2"/>
  </g>
</svg>
