<svg xmlns="http://www.w3.org/2000/svg" xmlns:xlink="http://www.w3.org/1999/xlink" width="160.742" height="27.18" viewBox="0 0 160.742 27.18">
  <defs>
    <clipPath id="clip-path">
      <rect id="Retângulo_310" data-name="Retângulo 310" width="160.742" height="27.18" transform="translate(0 0)" fill="none"/>
    </clipPath>
  </defs>
  <g id="Grupo_900" data-name="Grupo 900" transform="translate(0 0)">
    <g id="Grupo_899" data-name="Grupo 899" clip-path="url(#clip-path)">
      <path id="Caminho_503" data-name="Caminho 503" d="M160.222,24.515a1.779,1.779,0,0,0,.52-1.171q0-1.819-1.626-1.821t-1.626,1.821c0,.043.022.348.065.911q.326.781,1.561.781a1.416,1.416,0,0,0,1.106-.521m-7.544.39a2.26,2.26,0,0,0,1.561-.781,1.649,1.649,0,0,0,.52-.975q0-1.625-3.966-1.561-4.032,0-4.031,2.016a1.176,1.176,0,0,0,1.04,1.3h4.876M55.336,2.341a7.51,7.51,0,0,0-2.861,5.853,5.957,5.957,0,0,0,.911,3.381l-.2-.065a2.441,2.441,0,0,1-.845-.26,3.213,3.213,0,0,0-1.56-.326,5.443,5.443,0,0,0-3.251.976,10.907,10.907,0,0,0-2.8,3.381l-.976-.649a5.354,5.354,0,0,0-2.8-1.172,4.136,4.136,0,0,0-3.381,1.756,4.773,4.773,0,0,0-1.17,2.927q-2.667-1.952-7.8-1.952T20.093,21.98a35.54,35.54,0,0,0-6.373,1.235,3.8,3.8,0,0,0-2.665,3.64q3.25-.193,12.744-.324,11.574-.2,106.315-1.366,8.454-.194,12.616-.586V23.6q-.261-.844-1.821-1.5a8.224,8.224,0,0,0-3.187-.65,5.661,5.661,0,0,0-2.991.715,6.647,6.647,0,0,1-1.235.65q-.651,0-1.821-1.365a3.447,3.447,0,0,0-2.8-1.366,3.555,3.555,0,0,0-1.821.391,3.985,3.985,0,0,0-1.3,1.17h-.909a6.476,6.476,0,0,0-1.821-2.927q-1.819-1.948-3.317-1.95a3.362,3.362,0,0,0-2.665,1.495,2.162,2.162,0,0,0-1.3-1.755,7.529,7.529,0,0,0-3.511-.715,8.376,8.376,0,0,0-5.137,1.755,21.163,21.163,0,0,0-2.407,2.341l-.129-.13a25.737,25.737,0,0,0-.91-3.512,1.89,1.89,0,0,0-1.886-1.169,4.347,4.347,0,0,0-2.731,1.1A15.9,15.9,0,0,1,97.6,17.232a26.084,26.084,0,0,1-2.276-2.926q-2.209-2.992-3.706-2.991a4.784,4.784,0,0,0-3.251,1.43,24.508,24.508,0,0,0-1.95,2.081,12.533,12.533,0,0,0-1.172-4.942q-1.886-3.576-7.282-3.577a8.642,8.642,0,0,0-4.746,1.172,7.207,7.207,0,0,0-1.106.909,10.5,10.5,0,0,0-2.536-4.551A10.8,10.8,0,0,0,61.254,0a8.926,8.926,0,0,0-5.918,2.341M0,25.556a.869.869,0,0,0,.195.52,3.153,3.153,0,0,0,1.235,1.1H4.746a2.458,2.458,0,0,0,1.106-.91A2.11,2.11,0,0,0,6.307,25.1q0-1.236-3.12-1.43Q0,23.409,0,25.556" fill="#ffe3b8"/>
    </g>
  </g>
</svg>
