<svg xmlns="http://www.w3.org/2000/svg" width="141.441" height="69" viewBox="0 0 141.441 69">
  <g id="Grupo_903" data-name="Grupo 903" transform="translate(-139.559 -437)">
    <text id="VOTAR" transform="translate(140 492)" fill="#ffe6c2" font-size="60" font-family="Xilosa" letter-spacing="-0.04em"><tspan x="0" y="0">VOTAR</tspan></text>
    <path id="Caminho_505" data-name="Caminho 505" d="M141.107,450.865h0l5.416-.8,7.89,29.811h1.071l10.282-29.633,4.963.393-10.139,39.772-12.139-.393s-5.951-29.566-7.908-40.072c.037.2.018.1,0,0" fill="none" stroke="#422918" stroke-width="2"/>
    <path id="Caminho_506" data-name="Caminho 506" d="M170.728,450.907l2.81,39.9,22.158-1.667,4.02-38.237Z" fill="none" stroke="#422918" stroke-width="2"/>
    <path id="Caminho_507" data-name="Caminho 507" d="M176.774,459.927l3.922,23.237,9.608-1.569,2.255-22.746Z" fill="#422918" stroke="#422918" stroke-width="2"/>
    <path id="Caminho_508" data-name="Caminho 508" d="M199.717,450.907l22.06.49v6.079l-7.746.98,1.177,32.649-10.491-.49,2.843-32.159-8.726,1.275Z" fill="none" stroke="#422918" stroke-width="2"/>
    <path id="Caminho_509" data-name="Caminho 509" d="M221.777,457.476l2.059,32.355,3.137.588,2.941-10.589,10-.784,3.824,12.158,4.167-.969-1.867-38.3-24.263-1.392Z" fill="none" stroke="#422918" stroke-width="2"/>
    <path id="Caminho_510" data-name="Caminho 510" d="M278.7,452.4l-8.47,21.059,6.266,15.838-2.959,1.624L259.383,478.04l-3.713,12.125-4.815-.406-1.972-39.1Z" fill="none" stroke="#422918" stroke-width="2"/>
    <path id="Caminho_511" data-name="Caminho 511" d="M256.54,459.707l2.089,9.4,4.931-.406,4.757-10.211Z" fill="#422918" stroke="#422918" stroke-width="1"/>
    <path id="Caminho_512" data-name="Caminho 512" d="M235.365,459.359l3.307,13.575-9.282-.986,3.075-12.589Z" fill="#422918" stroke="#422918" stroke-width="1"/>
    <path id="Caminho_513" data-name="Caminho 513" d="M161.547,488.639l11.916-1.358-2.79-30.62Z" fill="#422918" stroke="#422918" stroke-width="1"/>
    <path id="Caminho_514" data-name="Caminho 514" d="M196.24,486.6l8.673,1.056,2.187-29.036-8.749,1.508Z" fill="#422918" stroke="#422918" stroke-width="1"/>
    <path id="Caminho_515" data-name="Caminho 515" d="M215.321,488.789l8.371-3.017-2.112-28.282-7.768,1.433Z" fill="#422918" stroke="#422918" stroke-width="1"/>
    <path id="Caminho_516" data-name="Caminho 516" d="M228.142,485.467l14.091.517-3.241-6.923-9.159.517Z" fill="#422918" stroke="#422918" stroke-width="1"/>
    <path id="Caminho_517" data-name="Caminho 517" d="M245.036,451.759l2.413-1.282,3.243,38.388-2.866.6Z" fill="#422918" stroke="#422918" stroke-width="1"/>
    <path id="Caminho_518" data-name="Caminho 518" d="M148.106,452.6l16.442,1.147-9.559,25.619Z" fill="#422918" stroke="#422918" stroke-width="1"/>
    <path id="Caminho_519" data-name="Caminho 519" d="M257.121,486.684l13.459,2.263-11.313-10.269Z" fill="#422918" stroke="#422918" stroke-width="1"/>
  </g>
</svg>
