<svg xmlns="http://www.w3.org/2000/svg" xmlns:xlink="http://www.w3.org/1999/xlink" width="924.946" height="270" viewBox="0 0 924.946 270">
  <defs>
    <clipPath id="clip-path">
      <rect id="Retângulo_306" data-name="Retângulo 306" width="924.946" height="225.323" fill="none"/>
    </clipPath>
    <clipPath id="clip-path-2">
      <rect id="Retângulo_307" data-name="Retângulo 307" width="90.424" height="79.239" transform="translate(0 0)" fill="none"/>
    </clipPath>
    <clipPath id="clip-path-3">
      <rect id="Retângulo_308" data-name="Retângulo 308" width="781.254" height="88.87" transform="translate(0 0)" fill="none"/>
    </clipPath>
    <clipPath id="clip-path-4">
      <rect id="Retângulo_309" data-name="Retângulo 309" width="408.875" height="127.115" fill="none"/>
    </clipPath>
  </defs>
  <g id="Grupo_913" data-name="Grupo 913" transform="translate(247 -692)">
    <g id="Grupo_892" data-name="Grupo 892" transform="translate(-247 736.677)">
      <g id="Grupo_891" data-name="Grupo 891" clip-path="url(#clip-path)">
        <path id="Caminho_484" data-name="Caminho 484" d="M522.484,27.235q-35.313,13.011-60.582,18.9a298.707,298.707,0,0,1-71.465,8.128q-39.12-.423-141.562-24.979Q199.022,17.024,179.92,12.4q-31.967-7.655-38.738-7.728-35.391-.384-92.7,19.087Q34.173,28.627,10.807,37.2,4.62,39.36,0,40.737v62.942l924.947,10.049V17.451q-31.023,4.981-51.3,4.389-20.19-.505-72.684-3.606a985.853,985.853,0,0,1-98.331-10.5Q656.733.408,630.178.016a177.432,177.432,0,0,0-54.645,8.235q-9.21,2.868-53.049,18.984" fill="#eebf9b"/>
        <path id="Caminho_485" data-name="Caminho 485" d="M548.589,60.647q-87.221,14.46-100.31,16.288-53.43,7.389-97.5,4.793Q306.716,79.193,167.361,65.67,62.5,55.56,8.447,55.244V225.323L879.661,224.3V37.739q-26.232-.838-58.452-.839-79.227,0-153.51,7.384-52.44,5.25-119.11,16.363" fill="#e9b48b"/>
      </g>
    </g>
    <g id="Grupo_894" data-name="Grupo 894" transform="translate(170 832.631)">
      <g id="Grupo_893" data-name="Grupo 893" clip-path="url(#clip-path-2)">
        <path id="Caminho_486" data-name="Caminho 486" d="M7.111,79.079H.289A.284.284,0,0,1,0,78.8V77.132a.273.273,0,0,1,.289-.284H1.817a.283.283,0,0,0,.284-.273V69a.282.282,0,0,0-.284-.283H.289A.286.286,0,0,1,0,68.436V66.762a.285.285,0,0,1,.289-.276H7.121a.283.283,0,0,1,.275.276v1.674a.279.279,0,0,1-.275.286H5.584A.279.279,0,0,0,5.3,69v7.568a.28.28,0,0,0,.282.284H7.121a.269.269,0,0,1,.275.274V78.8a.275.275,0,0,1-.285.283" fill="#fff" fill-rule="evenodd"/>
        <path id="Caminho_487" data-name="Caminho 487" d="M22.025,66.763V78.8a.288.288,0,0,1-.285.283H19.46a.279.279,0,0,1-.214-.1l-6.509-7.4a.279.279,0,0,0-.491.179V78.8a.285.285,0,0,1-.294.283H9.34a.284.284,0,0,1-.289-.279V66.773a.286.286,0,0,1,.289-.286h2.5a.327.327,0,0,1,.236.11l6.249,7.031a.286.286,0,0,0,.5-.19V66.763a.28.28,0,0,1,.285-.276H21.74a.287.287,0,0,1,.285.276" fill="#fff" fill-rule="evenodd"/>
        <path id="Caminho_488" data-name="Caminho 488" d="M30.778,70.914,34.6,66.589a.3.3,0,0,1,.215-.1h2.368a.291.291,0,0,1,.287.286V78.8a.288.288,0,0,1-.287.278H34.562a.283.283,0,0,1-.286-.278V71.978a.283.283,0,0,0-.505-.179l-2.955,3.372a.312.312,0,0,1-.486,0L27.379,71.8a.281.281,0,0,0-.5.186V78.8a.29.29,0,0,1-.3.283H23.962a.283.283,0,0,1-.285-.278V66.773a.281.281,0,0,1,.278-.286h2.361a.288.288,0,0,1,.227.1l3.808,4.325a.285.285,0,0,0,.427,0" fill="#fff" fill-rule="evenodd"/>
        <path id="Caminho_489" data-name="Caminho 489" d="M48.562,77.052V78.8a.286.286,0,0,1-.286.278H39.4a.286.286,0,0,1-.284-.278V66.783a.28.28,0,0,1,.284-.3h8.759a.288.288,0,0,1,.279.286v1.742a.284.284,0,0,1-.288.275H42.589a.282.282,0,0,0-.285.285v1.65a.277.277,0,0,0,.285.275h5.274a.284.284,0,0,1,.293.271v1.757a.287.287,0,0,1-.287.284H42.587a.278.278,0,0,0-.283.284v2.889a.278.278,0,0,0,.28.287h5.694a.28.28,0,0,1,.284.28" fill="#fff" fill-rule="evenodd"/>
        <path id="Caminho_490" data-name="Caminho 490" d="M62.582,66.763v1.774a.278.278,0,0,1-.283.253H58.216a.281.281,0,0,0-.278.29V78.8a.285.285,0,0,1-.283.283H55.032a.288.288,0,0,1-.291-.283V69.068a.288.288,0,0,0-.28-.278H50.385a.277.277,0,0,1-.287-.275V66.783a.284.284,0,0,1,.287-.3H62.3a.291.291,0,0,1,.283.276" fill="#fff" fill-rule="evenodd"/>
        <path id="Caminho_491" data-name="Caminho 491" d="M69.023,72.4v.85c0,.109-.041.237.233.392a3.074,3.074,0,0,1,.575.462,6.249,6.249,0,0,1,1.337,2.042c.445,1.032.777,2.316,1,2.76a.3.3,0,0,0,.258.174h2.886a.277.277,0,0,0,.263-.4c-.263-.57-.971-2.618-1.482-3.728a6.029,6.029,0,0,0-1.45-1.892.3.3,0,0,1,.061-.47,3.276,3.276,0,0,0,1.709-2.88,3.31,3.31,0,0,0-3.442-3.225H64.523a.289.289,0,0,0-.283.295V78.8a.283.283,0,0,0,.292.283H67.16a.285.285,0,0,0,.282-.278V69.08a.276.276,0,0,1,.284-.29h1.612a1.685,1.685,0,0,1,1.82,1.64,1.7,1.7,0,0,1-1.793,1.686c-.311-.008-.342.212-.342.284" fill="#fff" fill-rule="evenodd"/>
        <path id="Caminho_492" data-name="Caminho 492" d="M83.081,66.329a7.379,7.379,0,0,1,5.314,1.935,6.04,6.04,0,0,1-.028,9.057,8.272,8.272,0,0,1-10.583.008,6.005,6.005,0,0,1-2.047-4.546,6.067,6.067,0,0,1,2.023-4.521,7.432,7.432,0,0,1,5.321-1.933m0,10.294a4.086,4.086,0,0,0,2.934-1.054,4.034,4.034,0,0,0,0-5.571,4.628,4.628,0,0,0-5.873,0,4.034,4.034,0,0,0,0,5.571,4.126,4.126,0,0,0,2.939,1.054" fill="#fff" fill-rule="evenodd"/>
        <path id="Caminho_493" data-name="Caminho 493" d="M58.193,47.241A1.053,1.053,0,0,0,59.374,48.4H74.332a1.059,1.059,0,0,1,1.189,1.171v7.815a1.058,1.058,0,0,1-1.189,1.167H16.091A1.056,1.056,0,0,1,14.9,57.388V49.562a1.054,1.054,0,0,1,1.186-1.16H31.05a1.052,1.052,0,0,0,1.184-1.161V11.323a1.052,1.052,0,0,0-1.184-1.166H16.091A1.056,1.056,0,0,1,14.9,8.992V1.167A1.06,1.06,0,0,1,16.091,0H74.332a1.059,1.059,0,0,1,1.189,1.167V8.992a1.058,1.058,0,0,1-1.189,1.165H59.374a1.057,1.057,0,0,0-1.185,1.166q0,17.959,0,35.918M33.436,31.151l23.57,15.956V27.4L33.436,11.434Z" fill="#fff" fill-rule="evenodd"/>
      </g>
    </g>
    <g id="Grupo_896" data-name="Grupo 896" transform="translate(-175 823)">
      <g id="Grupo_895" data-name="Grupo 895" clip-path="url(#clip-path-3)">
        <path id="Caminho_494" data-name="Caminho 494" d="M629.037,78.976a4.6,4.6,0,0,0-2.283-2.132,5.72,5.72,0,0,0-2.208.381q-.914.533-.912,3.2,0,2.739.683,3.348a6.091,6.091,0,0,0,2.437.838,6.583,6.583,0,0,0,2.13-.838l.838-2.967a4.323,4.323,0,0,0-.685-1.827M611.3,5.075q-2.74.609-2.815.684-1.6.837-1.6,3.5c0,.2.328.582.988,1.141q1.827,1.675,3.425,3.425a8.157,8.157,0,0,0,4.415-4.186A27.4,27.4,0,0,0,611.3,5.075M57.462,64.9q-.381,0-.381-2.74-1.065-.838-4.186-.838l-.229.077a13.85,13.85,0,0,0-.227,3.272q0,2.589.685,2.512c.2,0,.406-.2.608-.609q2.892-.379,3.73-1.674m66.746,17.961a3.558,3.558,0,0,0-2.054-.761l-.837,3.12q0,.609,2.13,1.446a3.67,3.67,0,0,0,2.056-2.054,3.526,3.526,0,0,0-1.295-1.751M297.889,53.251l.076-.913a2.28,2.28,0,0,0-1.371-.99,4.808,4.808,0,0,0-1.978.153,7.176,7.176,0,0,0,.837,3.957l2.131-.381a9.731,9.731,0,0,0,.3-1.826M558.941,66.57l-.153-2.511a4.616,4.616,0,0,0-2.664-.839h-1.978a11.663,11.663,0,0,0-.229,3.122q0,2.586.685,2.511c.2,0,.406-.2.61-.608q2.892-.381,3.729-1.675M495.313,43.585q-1.065-2.664-2.586-.761a19.172,19.172,0,0,0-2.208,3.653l1.447,1.294q2.967-.456,3.8-1.675-.456,0-.458-2.511m240.5-40.032.458-2.513A2.3,2.3,0,0,0,734.9.05,4.816,4.816,0,0,0,732.925.2a8.346,8.346,0,0,0,.837,4.032l2.054-.683M706.134,20.677a7.719,7.719,0,0,0-1.522-2.436,6.43,6.43,0,0,0-2.816.38q-1.142.763-1.141,3.578,0,2.739.685,3.348a6.1,6.1,0,0,0,2.435.838,4.872,4.872,0,0,0,2.132-.838l.836-2.891a5.189,5.189,0,0,0-.609-1.979" fill="#ec9077"/>
        <path id="Caminho_495" data-name="Caminho 495" d="M238.981,57.589a5.362,5.362,0,0,0,1.217-3.805,5.058,5.058,0,0,0-2.664-.99q-1.293.152-1.522.152,0,3.348.837,4.643ZM.837,19.916H2.893A5.366,5.366,0,0,0,4.11,16.11a5.079,5.079,0,0,0-2.664-.99A6.672,6.672,0,0,0,0,15.272q0,3.349.837,4.644M43.914,85.445q-.455,0-.456-2.512a3.2,3.2,0,0,0-2.435-.989q-1.6.151-1.979.152h-.077q-.076.532-.076,3.12t.534,2.512c.151,0,.3-.2.456-.609q3.2-.458,4.033-1.674m142.1-25.8q-.457,0-.457-2.512a4.247,4.247,0,0,0-2.588-.837h-1.978a12.624,12.624,0,0,0-.229,3.2q0,2.586.685,2.511c.2-.051.406-.278.608-.685q2.892-.153,3.959-1.674m4.566,26.638a3.824,3.824,0,0,0-3.349-2.512c0,.153-.28.1-.837-.152q-.839.075-.837,2.664t1.522,2.588a2.549,2.549,0,0,0,1.445-.534,3.673,3.673,0,0,0,2.056-2.054m38.13.38a5.073,5.073,0,0,0,1.218-3.729,5.079,5.079,0,0,0-2.664-.989q-1.293.151-1.522.152,0,3.348.836,4.566h2.132M523.17,68.245q-.381,0-.38-2.513-1.371-2.283-2.741-.685a26.944,26.944,0,0,0-2.13,3.654l1.522,1.217q2.892-.381,3.729-1.673M427.73,39.551l.456-2.511a2.278,2.278,0,0,0-1.369-.99,4.847,4.847,0,0,0-1.98.152,7.041,7.041,0,0,0,.839,3.805l2.054-.456M730.186,50.662a5.076,5.076,0,0,0,1.217-3.728,5.415,5.415,0,0,0-2.664-.914c-.864.051-1.37.076-1.522.076q0,3.349.837,4.566h2.132M648.14,5.682l-.456-2.13q-3.123-1.674-4.8,0,0,3.88,2.512,4.87l2.284-.837.456-1.9m-55.1,32.195a4.644,4.644,0,0,0-2.283-2.056,6.207,6.207,0,0,0-2.208.381q-.912.532-.912,3.2,0,2.741.685,3.349a6.121,6.121,0,0,0,2.435.837l2.131-.837.837-2.968a3.958,3.958,0,0,0-.685-1.9" fill="#f3c9a9"/>
        <path id="Caminho_496" data-name="Caminho 496" d="M779.959,38.715a4.889,4.889,0,0,0,1.3-3.73,8.882,8.882,0,0,0-4.415-1.066q0,3.579.837,4.8ZM661.915,58.5a6.673,6.673,0,0,0-2.664-2.208,5.442,5.442,0,0,0-2.13.381q-.838.532-.838,3.2,0,2.739.685,3.348a5.157,5.157,0,0,0,2.283.838,8.41,8.41,0,0,0,2.588-1.219,5.3,5.3,0,0,0,1.6-1.673,7.584,7.584,0,0,0-1.522-2.664M533.445,19.916a5.362,5.362,0,0,0,1.217-3.805,4.9,4.9,0,0,0-3.958-1.446l-.076-.229a14.486,14.486,0,0,0-.152,2.968q0,2.589.456,2.816c.1.1.229,0,.381-.3h2.132M465.4,56.752V55.458q-5.1-1.674-6.925-.836,0,3.348.837,4.642,2.661,0,6.088-2.512M305.727,76.845a9.774,9.774,0,0,0-3.348-3.806,4,4,0,0,0-2.817,1.827,4.21,4.21,0,0,0-.761,2.359,8.066,8.066,0,0,0,4.415,1.675,6.454,6.454,0,0,0,2.511-2.055M143.084,33.692a5.419,5.419,0,0,0-1.674-3.959,5.912,5.912,0,0,0-1.675.305,4.439,4.439,0,0,0-1.674.99,7.083,7.083,0,0,0,.456,2.511,3.707,3.707,0,0,0,2.054,2.283q2.133-.837,2.513-2.13M110.662,59.644l-.457-2.512a6.978,6.978,0,0,0-2.892-.837h-1.447a10.635,10.635,0,0,0,.837,4.872,5.689,5.689,0,0,0,3.959-1.523M38.891,26.386l.153-2.742-.839-.988-1.673.152a10.682,10.682,0,0,0,.3,2.207,5.3,5.3,0,0,0,.989,2.207l1.066-.836M9.589,38.334,7.915,35.822H5.4A2.166,2.166,0,0,1,4.8,36.963a11.155,11.155,0,0,0-.229,3.045q0,2.589.61,2.968c.2.1.4.026.608-.227l2.968-.685a6.654,6.654,0,0,0,.837-3.73" fill="#d79b6c"/>
      </g>
    </g>
    <g id="Grupo_898" data-name="Grupo 898" transform="translate(21.125 692)">
      <g id="Grupo_897" data-name="Grupo 897" transform="translate(0 0)" clip-path="url(#clip-path-4)">
        <path id="Caminho_497" data-name="Caminho 497" d="M573.838,44.589a8.594,8.594,0,0,1-.817-1.3q0-1.2.1-2.451.2-3.148.392-4.6.523-3.9,2.483-3.7a2.706,2.706,0,0,1,2.583,1.6,10.972,10.972,0,0,1,.588,4.7q-.1,3.25.49,3.851a2.42,2.42,0,0,0,1.373.5,8.242,8.242,0,0,1-.686,2.85q-.458.7-2.027.7a5.427,5.427,0,0,1-4.477-2.151m22.256-36.3q.1.95.1,5.5a96.637,96.637,0,0,1-.948,11.4q-.916,7.349-1.046,65.35l-7.648.6q-2.518-45.4-1.275-65.65,1.274-20.25,3.366-24.351A3.589,3.589,0,0,1,589.689.99a7.937,7.937,0,0,1,5.066,1.5,30.866,30.866,0,0,1,1.339,5.8m8.4,5.65q1.928.249,2.091,4.2.032,1.551-.033,4.651-.065,1.5-.2,2.8a5.533,5.533,0,0,1-.882,1.051,3.973,3.973,0,0,1-2.681,1.1q-1.568,0-2.615-2.35a10.077,10.077,0,0,1-.686-2.051.945.945,0,0,0,.392-.149q.654-.45.883-3.7a10.307,10.307,0,0,1,1.013-4.55,2.4,2.4,0,0,1,2.713-1" transform="translate(-235.462 3.795)" fill="#84a331"/>
        <path id="Caminho_498" data-name="Caminho 498" d="M583.609,13.889q1.21-11.449,5.033-12.75-2.091,4.1-3.366,24.35-1.242,20.25,1.275,65.651l-2.059.149q-1.144-14.3-1.275-21.149-.2-9.049-.294-18.5a27.559,27.559,0,0,1-3.334,0q-1.406-.1-2.647-.3a4.168,4.168,0,0,1-1.961-.8,4.321,4.321,0,0,1-1.242-1.9,6.08,6.08,0,0,1-.425-1.5,23.31,23.31,0,0,1-.294-3.851,8.549,8.549,0,0,0,.817,1.3,5.428,5.428,0,0,0,4.478,2.15q1.569,0,2.026-.7a8.226,8.226,0,0,0,.686-2.849,14.64,14.64,0,0,0,1.863.1v-1.2q0-21.348.719-28.2m12.452-10.05q2.189,3.152,2.19,10.8,0,3.15-.294,8.7a5.745,5.745,0,0,0,1.536,0,10.062,10.062,0,0,0,.686,2.051q1.045,2.349,2.615,2.349a3.973,3.973,0,0,0,2.68-1.1,5.542,5.542,0,0,0,.883-1.051,24.248,24.248,0,0,1-.588,3.45,5.845,5.845,0,0,1-.588,1.351,3.449,3.449,0,0,1-1.373,1.6,4.717,4.717,0,0,1-2.026.4q-1.242-.1-2.68-.3-.654-.1-1.634-.3-.36,5.6-.49,7.6-.164,2.6-.654,17.949-.524,15.3-.359,33.051l-1.765.149q.13-58,1.046-65.349a96.528,96.528,0,0,0,.948-11.4q0-4.549-.1-5.5a30.9,30.9,0,0,0-1.34-5.8,4.932,4.932,0,0,1,1.307,1.35" transform="translate(-235.462 3.795)" fill="#6b8720"/>
        <path id="Caminho_499" data-name="Caminho 499" d="M597.579,56.339a9.9,9.9,0,0,1-.72.75,3.134,3.134,0,0,1-.751.6c-.175,0-.284-.05-.327-.15l-.163-.3.065-.3a5.648,5.648,0,0,1,.882-.9q.72-.65,1.014.3m-.2-14.549a2.84,2.84,0,0,1-.555.5,3.082,3.082,0,0,1-.817.45l-.229-.05v-.4a3.293,3.293,0,0,1,1.6-.951v.451m-1.177-4.6v-.2q0-.851,1.537-1.5c.022.2.033.333.033.4q0,.3-1.373,1.55c-.174,0-.239-.083-.2-.25m5.459-14.9a10.92,10.92,0,0,1,.1,1.2l-.294.15a1.352,1.352,0,0,1-.424-.6,2.288,2.288,0,0,1-.131-.7l.065-.349q.523-.45.687.3m2.745,7.8.033-.3a3.036,3.036,0,0,1,1.437-.4q.426.05.426.4,0,.649-1.243.65-.555,0-.654-.351m-30.95,19.8a1.434,1.434,0,0,1,.882-.8q.49-.148.49.5l-.2.451a.83.83,0,0,1-.686.45q-.262,0-.49-.6m10.1,9.35a.894.894,0,0,1-.1.4l-.294.05c-.457-.3-.686-.6-.686-.9a.583.583,0,0,1,.163-.451,2.244,2.244,0,0,1,.556.4q.359.3.359.5m7.255,2.65v-.75q.2-1.55.654-1.6.426-.1.426.9l-.163.85q-.229.8-.621.8a.361.361,0,0,1-.295-.2m-2.385.15c.087-.166.163-.317.229-.451a1.057,1.057,0,0,1,.294.5,5.468,5.468,0,0,1-.294,1.3l-.1-.1a10.341,10.341,0,0,1-.13-1.25M591.5,47.19a1.343,1.343,0,0,1,.49-1.15c.305-.2.458-.05.458.45a2.263,2.263,0,0,1-.1.6c-.131.368-.294.551-.49.551-.175,0-.261-.033-.261-.1l-.1-.35m-4.51,3.5a7.3,7.3,0,0,1-.1-1.05,4.229,4.229,0,0,0,.295-.6.586.586,0,0,0,.131.4.727.727,0,0,1,.163.25l-.1.6a2.019,2.019,0,0,1-.2.65,1.562,1.562,0,0,1-.2-.25M581.4,44.339a1.72,1.72,0,0,0,.229-.949q-.066-.649-.065-1,.13-1.05.424-.5a2.232,2.232,0,0,1,.262,1.05q0,.05-.033.9-.131.852-.556.851c-.109,0-.174-.033-.2-.1a2.336,2.336,0,0,1-.065-.25m.392-11.349a1.154,1.154,0,0,0,.294-.35,3.353,3.353,0,0,1,1.241,2.1,2.612,2.612,0,0,1-1.535-1.75m5.294,9.9-.13-.051a3.763,3.763,0,0,1-.163-.849,2.711,2.711,0,0,1,.293-.5.629.629,0,0,1,.294.55,1.568,1.568,0,0,1-.294.85m2.321-6.95a1.841,1.841,0,0,1-.393-1.25q0-.5.36-.5t.36.5l-.327,1.25m2.222,1.2c-.152,0-.2-.051-.131-.15a4.458,4.458,0,0,1,.784-1.5q.589-.75.589.3,0,.2-.49.75-.49.6-.752.6m-.327-16q0,1.451-.686,1.449c-.2,0-.295-.266-.295-.8a1.6,1.6,0,0,1,.49-1.15q.49-.451.49.5m-4.216,2.8h.2a3.237,3.237,0,0,0,.294,1.35h-.033a.848.848,0,0,1-.686-.951.391.391,0,0,1,.228-.4m-12.386,18a1.432,1.432,0,0,0,.033-.3.607.607,0,0,1,.686.1.824.824,0,0,1,.2.6l-.032.651-.359.15a1.337,1.337,0,0,1-.523-1.2m4.151-2.55c-.088,0-.142-.016-.163-.051l-.033-.1a1.727,1.727,0,0,1,.458-1,1.1,1.1,0,0,1,.817-.45,1.913,1.913,0,0,1-.49,1.1c-.284.333-.479.5-.588.5m-1.6-3.8a3.84,3.84,0,0,1-.458,1.851q-.424-.1-.424-1a2.011,2.011,0,0,1,.424-1.15q.458-.551.458.3m-4.346.8h.065a1.04,1.04,0,0,1,.588.3.967.967,0,0,1,.457.75l-.261.45a7.719,7.719,0,0,1-.589-.6,1.021,1.021,0,0,1-.294-.6.745.745,0,0,1,.033-.3m10.949-21.1a1.809,1.809,0,0,1-.294.549,2.056,2.056,0,0,1-.72-.7,1.357,1.357,0,0,1-.359-.649.763.763,0,0,1,.033-.3h.066q.261-.049.784.449.49.5.49.651m5.719-3.5a3.253,3.253,0,0,1-.131-.7.4.4,0,0,1,.327-.4c.239-.1.36.017.36.35a2.772,2.772,0,0,1-.327,1.5,2.836,2.836,0,0,1-.229-.75m7.713,6.15a1.881,1.881,0,0,1,.784-1.5c.457-.3.686-.15.686.449l-.426.75q-.457.75-.686.75c-.175,0-.262-.033-.262-.1l-.1-.35m-3.072-4.5a.943.943,0,0,1,.621-.25,2,2,0,0,1-.163.75c-.131.366-.305.55-.523.55-.066,0-.12-.05-.163-.151l-.131-.3a1.012,1.012,0,0,1,.359-.6m9.739,6a1.409,1.409,0,0,1-.294-.851q0-1.1.784-.75v1.05q-.033.2-.49.551M592.937,2.24A5.914,5.914,0,0,1,593.3.29q.36-.851.36.8l-.033.651c-.065.5-.2.75-.391.75-.109,0-.175-.033-.2-.1l-.1-.149M606.73,18.69q.555-.5.556.4a2.33,2.33,0,0,1-.425.651q-.49.6-.686.6c-.109,0-.174-.033-.2-.1v-.151a2.854,2.854,0,0,1,.752-1.4" transform="translate(-235.41 3.795)" fill="#6b8720"/>
        <path id="Caminho_500" data-name="Caminho 500" d="M29.153,53.964a10.975,10.975,0,0,0-.588,4.7q.1,3.25-.49,3.85a2.413,2.413,0,0,1-1.373.5,8.235,8.235,0,0,0,.686,2.851q.458.7,2.026.7a5.429,5.429,0,0,0,4.478-2.151,8.746,8.746,0,0,0,.817-1.3q0-1.2-.1-2.451-.2-3.149-.392-4.6-.524-3.9-2.484-3.7a2.7,2.7,0,0,0-2.582,1.6M12.975,22.315a30.828,30.828,0,0,0-1.34,5.8q-.1.948-.1,5.5a96.6,96.6,0,0,0,.948,11.4q.915,7.35,1.046,65.351l7.648.6q2.517-45.4,1.275-65.649-1.275-20.25-3.366-24.351a3.588,3.588,0,0,0-1.046-.149,7.936,7.936,0,0,0-5.066,1.5M3.236,33.764q-1.929.25-2.092,4.2-.032,1.55.033,4.651.066,1.5.2,2.8a5.471,5.471,0,0,0,.882,1.05,3.971,3.971,0,0,0,2.68,1.1q1.569,0,2.615-2.351a10.045,10.045,0,0,0,.686-2.05.934.934,0,0,1-.392-.15q-.654-.45-.882-3.7a10.315,10.315,0,0,0-1.013-4.551,2.4,2.4,0,0,0-2.713-1" transform="translate(-0.393 11.869)" fill="#84a331"/>
        <path id="Caminho_501" data-name="Caminho 501" d="M24.247,33.714q-1.21-11.448-5.033-12.75,2.09,4.1,3.366,24.351,1.242,20.25-1.275,65.649l2.058.151q1.144-14.3,1.275-21.151.2-9.049.295-18.5a26.74,26.74,0,0,0,3.333,0q1.406-.1,2.648-.3a4.184,4.184,0,0,0,1.961-.8,4.334,4.334,0,0,0,1.241-1.9,6.068,6.068,0,0,0,.426-1.5,23.288,23.288,0,0,0,.294-3.849,8.757,8.757,0,0,1-.817,1.3,5.432,5.432,0,0,1-4.478,2.15q-1.568,0-2.026-.7a8.22,8.22,0,0,1-.686-2.851,14.248,14.248,0,0,1-1.864.1v-1.2q0-21.351-.718-28.2M13.1,22.315a4.9,4.9,0,0,0-1.307,1.35q-2.189,3.148-2.19,10.8,0,3.151.295,8.7a5.832,5.832,0,0,1-1.536,0,10.019,10.019,0,0,1-.687,2.049q-1.045,2.352-2.615,2.351a3.968,3.968,0,0,1-2.679-1.1A5.441,5.441,0,0,1,1.5,45.415a24.285,24.285,0,0,0,.588,3.45,5.837,5.837,0,0,0,.589,1.349,3.459,3.459,0,0,0,1.372,1.6,4.723,4.723,0,0,0,2.027.4q1.242-.1,2.68-.3.654-.1,1.634-.3.359,5.6.49,7.6.164,2.6.654,17.951.523,15.3.359,33.049l1.766.151q-.131-58-1.046-65.351a96.443,96.443,0,0,1-.948-11.4q0-4.55.1-5.5a30.838,30.838,0,0,1,1.341-5.8" transform="translate(-0.52 11.869)" fill="#6b8720"/>
        <path id="Caminho_502" data-name="Caminho 502" d="M25.819,64.415a2.39,2.39,0,0,0,.065-.25,1.72,1.72,0,0,1-.229-.95c.044-.433.065-.767.065-1q-.131-1.05-.425-.5a2.234,2.234,0,0,0-.261,1.05q0,.051.033.9.13.849.556.85c.109,0,.174-.034.2-.1m7.517,5.9q.262,0,.49-.6a1.432,1.432,0,0,0-.882-.8q-.49-.15-.49.5l.2.45a.83.83,0,0,0,.686.45M11.6,76.766a5.59,5.59,0,0,0-.882-.9q-.72-.649-1.013.3a10.27,10.27,0,0,0,.719.75,3.161,3.161,0,0,0,.752.6c.175,0,.284-.051.327-.151l.163-.3-.065-.3m13.2,1.849a.582.582,0,0,0-.163-.45,2.2,2.2,0,0,0-.556.4c-.24.2-.36.367-.36.5a.9.9,0,0,0,.1.4l.294.051q.686-.452.686-.9m.686-25.8a1.132,1.132,0,0,1-.294-.35,3.353,3.353,0,0,0-1.242,2.1,2.614,2.614,0,0,0,1.536-1.75m-14.413,4.2v-.2q0-.85-1.536-1.5c-.022.2-.033.333-.033.4q0,.3,1.373,1.55c.174,0,.24-.083.2-.25m.425,5.5v-.4a3.275,3.275,0,0,0-1.6-.95v.45a2.84,2.84,0,0,0,.556.5,3.044,3.044,0,0,0,.817.45l.229-.05m-8.628-12.6-.033-.3a3.04,3.04,0,0,0-1.438-.4c-.284.033-.425.167-.425.4q0,.651,1.242.65.555,0,.654-.35M9.9,38.115l.1-.35a1.883,1.883,0,0,0-.784-1.5q-.686-.45-.686.45l.425.75q.457.75.686.75c.175,0,.261-.033.261-.1m14.871-4.1h-.065c-.174-.034-.436.117-.784.45-.327.334-.49.55-.49.65a1.808,1.808,0,0,0,.294.55,2.065,2.065,0,0,0,.719-.7,1.353,1.353,0,0,0,.36-.65.767.767,0,0,0-.033-.3M14.25,22.215l.1-.15a5.924,5.924,0,0,0-.36-1.95q-.359-.849-.36.8l.033.65q.1.75.392.75c.109,0,.175-.033.2-.1m1.438,45.15.1-.349a1.342,1.342,0,0,0-.49-1.151q-.458-.3-.458.45a2.278,2.278,0,0,0,.1.6q.2.55.49.55c.175,0,.261-.033.261-.1m3.17,14.5c-.088-.167-.163-.316-.229-.45a1.042,1.042,0,0,0-.294.5,5.43,5.43,0,0,0,.294,1.3l.1-.1a10.2,10.2,0,0,0,.131-1.25m-2.386-.15v-.75q-.2-1.549-.654-1.6-.425-.1-.425.9l.163.849q.229.8.621.8a.362.362,0,0,0,.294-.2m3.726-20.4a.63.63,0,0,0-.294.55,1.569,1.569,0,0,0,.294.85l.131-.05a3.789,3.789,0,0,0,.163-.85,2.739,2.739,0,0,0-.294-.5m14.184-5.1h-.065a1.038,1.038,0,0,0-.588.3.967.967,0,0,0-.458.75l.261.45a7.277,7.277,0,0,0,.588-.6,1.014,1.014,0,0,0,.294-.6.767.767,0,0,0-.033-.3m-1.8,5.55a1.42,1.42,0,0,1-.033-.3.607.607,0,0,0-.686.1.824.824,0,0,0-.2.6l.033.65.36.15a1.337,1.337,0,0,0,.523-1.2m-2.092-4.5q.425-.1.425-1a2.008,2.008,0,0,0-.425-1.15q-.458-.551-.458.3a3.839,3.839,0,0,0,.458,1.85m-1.9,1.9.033-.1a1.724,1.724,0,0,0-.458-1,1.1,1.1,0,0,0-.817-.45,1.905,1.905,0,0,0,.49,1.1c.284.334.479.5.588.5.087,0,.141-.017.163-.05m-8.2,10.3a4.11,4.11,0,0,1-.294-.6.592.592,0,0,1-.131.4.7.7,0,0,0-.163.25l.1.6a2.019,2.019,0,0,0,.2.651,1.757,1.757,0,0,0,.2-.25,7.389,7.389,0,0,0,.1-1.051m-2.517-13.7a1.839,1.839,0,0,0,.392-1.25q0-.5-.36-.5t-.36.5l.327,1.25m-2.222,1.2q.228,0,.131-.15a4.457,4.457,0,0,0-.784-1.5q-.588-.75-.588.3,0,.2.49.75.49.6.752.6m-9.282-14.8-.065-.35q-.523-.45-.686.3a10.9,10.9,0,0,0-.1,1.2l.294.15a1.347,1.347,0,0,0,.425-.6,2.3,2.3,0,0,0,.131-.7m-3.04-2.9a1.411,1.411,0,0,0,.294-.85q0-1.1-.784-.75v1.05q.032.2.49.55M0,38.915a2.354,2.354,0,0,0,.425.65q.49.6.686.6c.109,0,.174-.033.2-.1v-.15a2.863,2.863,0,0,0-.752-1.4q-.555-.5-.556.4m20.427,5.25a.393.393,0,0,0-.229-.4H20a3.241,3.241,0,0,1-.294,1.35h.033a.849.849,0,0,0,.686-.95m-3.759-1.75q.294,0,.294-.8a1.6,1.6,0,0,0-.49-1.15q-.49-.45-.49.5,0,1.45.686,1.45m1.046-10.8a3.293,3.293,0,0,0,.131-.7.4.4,0,0,0-.327-.4q-.36-.15-.36.35a2.766,2.766,0,0,0,.327,1.5,2.863,2.863,0,0,0,.229-.75M13.3,34.165l.131-.3a1.021,1.021,0,0,0-.36-.6.95.95,0,0,0-.621-.25,1.988,1.988,0,0,0,.163.75q.2.551.523.55c.065,0,.12-.05.163-.15" transform="translate(0 11.869)" fill="#6b8720"/>
      </g>
    </g>
  </g>
</svg>
