<svg xmlns="http://www.w3.org/2000/svg" xmlns:xlink="http://www.w3.org/1999/xlink" width="90.424" height="79.239" viewBox="0 0 90.424 79.239">
  <defs>
    <clipPath id="clip-path">
      <rect id="Retângulo_307" data-name="Retângulo 307" width="90.424" height="79.239" transform="translate(0 0)" fill="none"/>
    </clipPath>
  </defs>
  <g id="Grupo_893" data-name="Grupo 893" transform="translate(0 0)" clip-path="url(#clip-path)">
    <path id="Caminho_486" data-name="Caminho 486" d="M7.111,79.079H.289A.284.284,0,0,1,0,78.8V77.132a.273.273,0,0,1,.289-.284H1.817a.283.283,0,0,0,.284-.273V69a.282.282,0,0,0-.284-.283H.289A.286.286,0,0,1,0,68.436V66.762a.285.285,0,0,1,.289-.276H7.121a.283.283,0,0,1,.275.276v1.674a.279.279,0,0,1-.275.286H5.584A.279.279,0,0,0,5.3,69v7.568a.28.28,0,0,0,.282.284H7.121a.269.269,0,0,1,.275.274V78.8a.275.275,0,0,1-.285.283" fill="#fff" fill-rule="evenodd"/>
    <path id="Caminho_487" data-name="Caminho 487" d="M22.025,66.763V78.8a.288.288,0,0,1-.285.283H19.46a.279.279,0,0,1-.214-.1l-6.509-7.4a.279.279,0,0,0-.491.179V78.8a.285.285,0,0,1-.294.283H9.34a.284.284,0,0,1-.289-.279V66.773a.286.286,0,0,1,.289-.286h2.5a.327.327,0,0,1,.236.11l6.249,7.031a.286.286,0,0,0,.5-.19V66.763a.28.28,0,0,1,.285-.276H21.74a.287.287,0,0,1,.285.276" fill="#fff" fill-rule="evenodd"/>
    <path id="Caminho_488" data-name="Caminho 488" d="M30.778,70.914,34.6,66.589a.3.3,0,0,1,.215-.1h2.368a.291.291,0,0,1,.287.286V78.8a.288.288,0,0,1-.287.278H34.562a.283.283,0,0,1-.286-.278V71.978a.283.283,0,0,0-.505-.179l-2.955,3.372a.312.312,0,0,1-.486,0L27.379,71.8a.281.281,0,0,0-.5.186V78.8a.29.29,0,0,1-.3.283H23.962a.283.283,0,0,1-.285-.278V66.773a.281.281,0,0,1,.278-.286h2.361a.288.288,0,0,1,.227.1l3.808,4.325a.285.285,0,0,0,.427,0" fill="#fff" fill-rule="evenodd"/>
    <path id="Caminho_489" data-name="Caminho 489" d="M48.562,77.052V78.8a.286.286,0,0,1-.286.278H39.4a.286.286,0,0,1-.284-.278V66.783a.28.28,0,0,1,.284-.3h8.759a.288.288,0,0,1,.279.286v1.742a.284.284,0,0,1-.288.275H42.589a.282.282,0,0,0-.285.285v1.65a.277.277,0,0,0,.285.275h5.274a.284.284,0,0,1,.293.271v1.757a.287.287,0,0,1-.287.284H42.587a.278.278,0,0,0-.283.284v2.889a.278.278,0,0,0,.28.287h5.694a.28.28,0,0,1,.284.28" fill="#fff" fill-rule="evenodd"/>
    <path id="Caminho_490" data-name="Caminho 490" d="M62.582,66.763v1.774a.278.278,0,0,1-.283.253H58.216a.281.281,0,0,0-.278.29V78.8a.285.285,0,0,1-.283.283H55.032a.288.288,0,0,1-.291-.283V69.068a.288.288,0,0,0-.28-.278H50.385a.277.277,0,0,1-.287-.275V66.783a.284.284,0,0,1,.287-.3H62.3a.291.291,0,0,1,.283.276" fill="#fff" fill-rule="evenodd"/>
    <path id="Caminho_491" data-name="Caminho 491" d="M69.023,72.4v.85c0,.109-.041.237.233.392a3.074,3.074,0,0,1,.575.462,6.249,6.249,0,0,1,1.337,2.042c.445,1.032.777,2.316,1,2.76a.3.3,0,0,0,.258.174h2.886a.277.277,0,0,0,.263-.4c-.263-.57-.971-2.618-1.482-3.728a6.029,6.029,0,0,0-1.45-1.892.3.3,0,0,1,.061-.47,3.276,3.276,0,0,0,1.709-2.88,3.31,3.31,0,0,0-3.442-3.225H64.523a.289.289,0,0,0-.283.295V78.8a.283.283,0,0,0,.292.283H67.16a.285.285,0,0,0,.282-.278V69.08a.276.276,0,0,1,.284-.29h1.612a1.685,1.685,0,0,1,1.82,1.64,1.7,1.7,0,0,1-1.793,1.686c-.311-.008-.342.212-.342.284" fill="#fff" fill-rule="evenodd"/>
    <path id="Caminho_492" data-name="Caminho 492" d="M83.081,66.329a7.379,7.379,0,0,1,5.314,1.935,6.04,6.04,0,0,1-.028,9.057,8.272,8.272,0,0,1-10.583.008,6.005,6.005,0,0,1-2.047-4.546,6.067,6.067,0,0,1,2.023-4.521,7.432,7.432,0,0,1,5.321-1.933m0,10.294a4.086,4.086,0,0,0,2.934-1.054,4.034,4.034,0,0,0,0-5.571,4.628,4.628,0,0,0-5.873,0,4.034,4.034,0,0,0,0,5.571,4.126,4.126,0,0,0,2.939,1.054" fill="#fff" fill-rule="evenodd"/>
    <path id="Caminho_493" data-name="Caminho 493" d="M58.193,47.241A1.053,1.053,0,0,0,59.374,48.4H74.332a1.059,1.059,0,0,1,1.189,1.171v7.815a1.058,1.058,0,0,1-1.189,1.167H16.091A1.056,1.056,0,0,1,14.9,57.388V49.562a1.054,1.054,0,0,1,1.186-1.16H31.05a1.052,1.052,0,0,0,1.184-1.161V11.323a1.052,1.052,0,0,0-1.184-1.166H16.091A1.056,1.056,0,0,1,14.9,8.992V1.167A1.06,1.06,0,0,1,16.091,0H74.332a1.059,1.059,0,0,1,1.189,1.167V8.992a1.058,1.058,0,0,1-1.189,1.165H59.374a1.057,1.057,0,0,0-1.185,1.166q0,17.959,0,35.918M33.436,31.151l23.57,15.956V27.4L33.436,11.434Z" fill="#fff" fill-rule="evenodd"/>
  </g>
</svg>
