<svg xmlns="http://www.w3.org/2000/svg" width="162" height="69" viewBox="0 0 162 69">
  <g id="Grupo_912" data-name="Grupo 912" transform="translate(-148 -647)">
    <text id="SALVAR" transform="translate(148 702)" fill="#ffe6c2" font-size="60" font-family="Xilosa" letter-spacing="-0.04em"><tspan x="0" y="0">SALVAR</tspan></text>
    <path id="Caminho_523" data-name="Caminho 523" d="M138.888,458.693l23.072.4-.312,7.9-13.388,1.74,1.294,8.211,14.5-1.383,1.16,24.723-25.794.8.4-6.158,14.459-3.079,1.116-5.757-15.173,1.383Z" transform="translate(11 201)" fill="none" stroke="#422918" stroke-width="3"/>
    <path id="Caminho_524" data-name="Caminho 524" d="M169.839,499.179l3.209.679,2.6-10.466,10.075-.864,4.083,12.153,4.063-.946-1.788-38.826-24.751-1.182Z" transform="translate(11 200.502)" fill="none" stroke="#422918" stroke-width="2"/>
    <path id="Caminho_525" data-name="Caminho 525" d="M178.269,468.862l3.234-.2,2.922,12.781-8.828-.547Z" transform="translate(11 201)" fill="#422918" stroke="#422918" stroke-width="1"/>
    <path id="Caminho_526" data-name="Caminho 526" d="M198.42,460.121l-.759,40.3,18.654-1.562-.268-5.489-12.228-1.562,2.856-31.908Z" transform="translate(11 201)" fill="none" stroke="#422918" stroke-width="1"/>
    <path id="Caminho_527" data-name="Caminho 527" d="M210.693,460.121l7.229,39,12.049.312,10.264-39.584-4.954-.625-10.8,29.989h-.848l-7.765-29.989Z" transform="translate(11 201)" fill="none" stroke="#422918" stroke-width="2"/>
    <path id="Caminho_528" data-name="Caminho 528" d="M239.7,462.71l1.964,36.281,3.035.4,2.945-10.13,10.041-.982,4.15,11.96,4.061-1.25-1.964-38.111L240.37,459.9Z" transform="translate(11 201)" fill="none" stroke="#422918" stroke-width="2"/>
    <path id="Caminho_529" data-name="Caminho 529" d="M250.366,468.868l2.9-.312,3.079,12.719-8.613-.4Z" transform="translate(11 201)" fill="none" stroke="#422918" stroke-width="1"/>
    <path id="Caminho_530" data-name="Caminho 530" d="M266.7,459.9l1.919,38.691,4.909.58,3.615-11.871,14.191,12.54,2.811-1.428-6.025-15.842,8.434-21.019Z" transform="translate(11 201)" fill="none" stroke="#422918" stroke-width="2"/>
    <path id="Caminho_531" data-name="Caminho 531" d="M274.821,469l10.889-.937-4.686,9.595-4.6.179Z" transform="translate(11 201)" fill="#422918" stroke="#422918" stroke-width="1"/>
    <path id="Caminho_532" data-name="Caminho 532" d="M167.33,459.735l-4.841-.215-.652,8.64L148.689,469.7l1.27,8.176,14.589-1.857.491,21.423,4.641,1.207Z" transform="translate(11 199.494)" fill="#422918" stroke="#422918" stroke-width="1"/>
    <path id="Caminho_533" data-name="Caminho 533" d="M173.509,498.009l14.794-2.031-2.785-7.832-9.979,1.044Z" transform="translate(11 201)" fill="#422918" stroke="#422918" stroke-width="1"/>
    <path id="Caminho_534" data-name="Caminho 534" d="M191.857,459.9l1.944,38.242,3.241.491.259-38.513Z" transform="translate(11.179 201)" fill="#422918" stroke="#422918" stroke-width="1"/>
    <path id="Caminho_535" data-name="Caminho 535" d="M218.12,662.368l3.972.982,5.489,31.06-12.272-2.365Z" fill="#422918" stroke="#422918" stroke-width="1"/>
    <path id="Caminho_536" data-name="Caminho 536" d="M227.848,699.631h.759l-.759-3.838Z" fill="#422918" stroke="#422918" stroke-width="1"/>
    <path id="Caminho_537" data-name="Caminho 537" d="M782.169,664.29l-9.654-1.81,7.844-29.112Z" transform="translate(-530 33)" fill="#422918" stroke="#422918" stroke-width="1"/>
    <path id="Caminho_538" data-name="Caminho 538" d="M789.787,648l7.014.679-3.017-11.539h-2.112Z" transform="translate(-530 33)" fill="#422918" stroke="#422918" stroke-width="1"/>
    <path id="Caminho_539" data-name="Caminho 539" d="M789.108,657.728l-2.338,7.693,14.028-2.187-2.64-6.411Z" transform="translate(-530 33)" fill="#422918" stroke="#422918" stroke-width="1"/>
    <path id="Caminho_540" data-name="Caminho 540" d="M807.058,663.762h2.187l-2.187-34.24-1.961-.679Z" transform="translate(-530 33)" fill="#422918" stroke="#422918" stroke-width="1"/>
    <path id="Caminho_541" data-name="Caminho 541" d="M816.033,664.29l14.33,2.263-11.841-10.031Z" transform="translate(-530 33)" fill="#422918" stroke="#422918" stroke-width="1"/>
    <path id="Caminho_542" data-name="Caminho 542" d="M816.711,637.742l8.749-1.056-3.771,8.145h-3.62Z" transform="translate(-530 33)" fill="#422918" stroke="#422918" stroke-width="1"/>
    <path id="Caminho_543" data-name="Caminho 543" d="M228.5,663.72l17.13-1.275-9.118,23.04-1.667,3.235Z" fill="#422918" stroke="#422918" stroke-width="1"/>
    <path id="Caminho_544" data-name="Caminho 544" d="M152.292,688.722l-.49,5.883,12.942-2.549v-4.118Z" fill="#422918" stroke="#422918" stroke-width="1"/>
  </g>
</svg>
